<?xml version="1.0" encoding="UTF-8"?>
<!DOCTYPE svg PUBLIC "-//W3C//DTD SVG 1.1//EN" "http://www.w3.org/Graphics/SVG/1.1/DTD/svg11.dtd">
<svg xmlns="http://www.w3.org/2000/svg" version="1.1" width="1036px" height="834px" style="shape-rendering:geometricPrecision; text-rendering:geometricPrecision; image-rendering:optimizeQuality; fill-rule:evenodd; clip-rule:evenodd" xmlns:xlink="http://www.w3.org/1999/xlink">
<g><path style="opacity:1" fill="#fefffe" d="M -0.5,-0.5 C 344.833,-0.5 690.167,-0.5 1035.5,-0.5C 1035.5,277.5 1035.5,555.5 1035.5,833.5C 690.167,833.5 344.833,833.5 -0.5,833.5C -0.5,555.5 -0.5,277.5 -0.5,-0.5 Z"/></g>
<g><path style="opacity:1" fill="#000000" d="M 686.5,17.5 C 714.661,16.1485 733.828,28.4818 744,54.5C 754.247,95.8424 749.747,135.676 730.5,174C 738.469,189.438 746.302,204.938 754,220.5C 760.301,238.358 766.301,256.358 772,274.5C 775.8,283.276 780.967,291.11 787.5,298C 788.449,298.617 789.282,298.451 790,297.5C 790.837,293.705 790.504,290.039 789,286.5C 786.837,257.33 788.837,228.664 795,200.5C 804.254,169.554 822.421,145.054 849.5,127C 863.493,120.857 878.16,118.857 893.5,121C 903.446,123.535 912.946,127.035 922,131.5C 940.703,124.844 957.369,128.177 972,141.5C 981.654,156.128 985.321,172.128 983,189.5C 989.912,203.728 993.912,218.728 995,234.5C 1013.99,252.135 1018.65,273.135 1009,297.5C 1006.3,302.893 1002.63,307.559 998,311.5C 994.637,324.701 989.637,336.701 983,347.5C 987.745,371.489 980.578,390.989 961.5,406C 944.924,414.774 928.424,414.607 912,405.5C 905.085,407.92 897.918,409.42 890.5,410C 875.775,439.057 855.775,464.057 830.5,485C 839.586,487.527 848.586,490.527 857.5,494C 870.816,501.452 880.316,512.286 886,526.5C 897.22,562.446 894.22,597.113 877,630.5C 858.647,664.52 832.147,690.02 797.5,707C 774.125,718.348 749.459,725.015 723.5,727C 719.17,731.503 714.17,735.003 708.5,737.5C 708.573,747.465 705.907,756.465 700.5,764.5C 695.12,770.24 688.453,772.74 680.5,772C 655.455,772.985 630.455,772.485 605.5,770.5C 605.666,780.839 605.5,791.172 605,801.5C 604.243,807.181 601.076,810.681 595.5,812C 516.833,812.667 438.167,812.667 359.5,812C 354.098,811.883 350.264,809.383 348,804.5C 347.667,794.833 347.333,785.167 347,775.5C 346.5,774.5 346,773.5 345.5,772.5C 322.54,772.552 299.54,772.385 276.5,772C 264.769,771.539 254.936,767.039 247,758.5C 245.048,752.376 243.881,746.042 243.5,739.5C 233.787,736.559 225.62,731.225 219,723.5C 199.435,700.807 193.101,674.807 200,645.5C 205.301,630.886 214.134,618.719 226.5,609C 234.994,604.338 243.494,599.838 252,595.5C 252.333,587.5 252.667,579.5 253,571.5C 254.186,565.915 254.852,560.249 255,554.5C 255.919,550.759 256.919,547.092 258,543.5C 259.004,540.007 258.504,536.841 256.5,534C 234.451,533.154 213.117,528.821 192.5,521C 160.761,508.562 132.094,491.228 106.5,469C 105.391,468.362 104.225,467.862 103,467.5C 91.2482,471.583 82.5816,468.249 77,457.5C 76.5529,451.612 75.2196,445.945 73,440.5C 55.6286,435.466 43.6286,424.466 37,407.5C 24.5839,375.25 30.4172,347.417 54.5,324C 56.596,322.234 58.9293,320.901 61.5,320C 64.7473,317.261 65.2473,314.094 63,310.5C 60.9888,276.465 58.6554,242.465 56,208.5C 52.6259,205.591 48.7925,203.424 44.5,202C 24.0151,181.85 19.8485,158.683 32,132.5C 42.8938,114.965 58.7271,107.131 79.5,109C 92.2603,113.087 102.094,120.92 109,132.5C 118.686,152.925 117.352,172.925 105,192.5C 101.584,196.587 97.584,199.92 93,202.5C 95.0366,241.156 97.3699,279.823 100,318.5C 100.5,319 101,319.5 101.5,320C 117.477,319.569 129.644,326.069 138,339.5C 142.92,349.264 147.253,359.264 151,369.5C 167.011,389.328 187.511,401.994 212.5,407.5C 212.649,406.448 212.483,405.448 212,404.5C 202.35,395.028 193.517,384.861 185.5,374C 176.353,370.346 168.52,364.846 162,357.5C 160.221,355.077 159.554,352.41 160,349.5C 162.648,344.363 165.481,339.363 168.5,334.5C 162.301,330.649 156.634,325.982 151.5,320.5C 148.617,315.245 148.95,310.245 152.5,305.5C 157.479,301.689 162.312,297.689 167,293.5C 168.63,289.941 170.63,286.608 173,283.5C 181.074,261.047 188.741,238.381 196,215.5C 202.787,202.603 210.12,189.936 218,177.5C 218.667,175.167 218.667,172.833 218,170.5C 208.22,152.822 202.22,133.822 200,113.5C 196.099,88.6634 199.433,64.9967 210,42.5C 221.927,25.7059 238.26,18.0392 259,19.5C 271.46,18.7054 283.294,20.872 294.5,26C 316.541,36.0478 335.041,50.5478 350,69.5C 351.242,70.8721 352.742,71.8721 354.5,72.5C 393.478,57.8184 433.978,50.1518 476,49.5C 516.999,49.0417 556.499,56.0417 594.5,70.5C 595.938,70.2811 597.271,69.7811 598.5,69C 621.877,41.4148 651.211,24.2482 686.5,17.5 Z"/></g>
<g><path style="opacity:1" fill="#fefffe" d="M 64.5,125.5 C 82.4533,125.274 93.62,133.941 98,151.5C 99.0104,160.002 98.3437,168.336 96,176.5C 87.4943,191.402 74.9943,195.902 58.5,190C 47.0804,182.424 41.7471,171.758 42.5,158C 42.3121,141.827 49.6455,130.993 64.5,125.5 Z"/></g>
<g><path style="opacity:1" fill="#fefffe" d="M 870.5,134.5 C 886.134,133.319 899.8,137.819 911.5,148C 931.16,167.466 944.66,190.299 952,216.5C 962.824,261.02 960.157,304.353 944,346.5C 936.389,361.873 926.222,375.373 913.5,387C 903.382,393.279 892.382,395.946 880.5,395C 870.166,393.511 862.166,388.511 856.5,380C 857.928,377.726 860.095,376.559 863,376.5C 867.287,377.28 871.453,378.446 875.5,380C 882.277,382.094 888.943,381.761 895.5,379C 908.844,372.657 919.344,363.157 927,350.5C 941.509,319.823 947.175,287.49 944,253.5C 941.489,217.502 928.323,186.169 904.5,159.5C 877.734,139.387 854.234,142.721 834,169.5C 824.698,184.049 817.698,199.716 813,216.5C 810.773,237.445 810.107,258.445 811,279.5C 812.638,295.9 816.472,312.067 822.5,328C 821.356,330.66 819.523,331.493 817,330.5C 798.009,282.672 797.676,234.672 816,186.5C 822.776,170.785 832.609,157.285 845.5,146C 853.425,141.034 861.759,137.2 870.5,134.5 Z"/></g>
<g><path style="opacity:1" fill="#fefffe" d="M 933.5,142.5 C 943.296,141.267 951.796,143.933 959,150.5C 962.799,155.765 965.799,161.432 968,167.5C 968.667,173.5 968.667,179.5 968,185.5C 967.239,188.909 965.739,191.909 963.5,194.5C 960.697,196.02 958.53,195.353 957,192.5C 950.662,175.648 942.162,159.982 931.5,145.5C 932.193,144.482 932.859,143.482 933.5,142.5 Z"/></g>
<g><path style="opacity:1" fill="#fefffe" d="M 889.5,169.5 C 894.543,170.773 898.709,173.439 902,177.5C 913.739,193.419 921.739,211.085 926,230.5C 934.101,266.992 931.435,302.325 918,336.5C 914.028,342.638 909.862,348.638 905.5,354.5C 903.401,356.52 901.067,356.854 898.5,355.5C 895.761,350.26 892.427,345.427 888.5,341C 881.919,337.834 875.086,335.668 868,334.5C 853.444,300.231 850.444,264.898 859,228.5C 861.895,217.385 865.895,206.718 871,196.5C 876.682,187.124 882.849,178.124 889.5,169.5 Z"/></g>
<g><path style="opacity:1" fill="#fefffe" d="M 348.5,170.5 C 361.594,170.201 374.261,171.368 386.5,174C 410.983,185.491 423.483,204.657 424,231.5C 424.323,243.964 422.323,255.964 418,267.5C 404.418,291.827 387.584,313.66 367.5,333C 338.493,354.665 306.826,359.332 272.5,347C 246.386,335.282 234.886,315.115 238,286.5C 240.264,266.314 247.264,247.98 259,231.5C 272.585,212.625 289.085,196.792 308.5,184C 321.046,176.88 334.379,172.38 348.5,170.5 Z"/></g>
<g><path style="opacity:1" fill="#fefffe" d="M 585.5,170.5 C 607.61,169.595 627.944,175.095 646.5,187C 678.034,208.51 699.534,237.343 711,273.5C 719.998,324.178 698.831,351.178 647.5,354.5C 633.531,354.175 620.198,351.008 607.5,345C 596.302,339.237 585.968,332.237 576.5,324C 564.185,310.356 553.018,295.856 543,280.5C 525.99,252.514 525.323,223.848 541,194.5C 551.772,178.862 566.605,170.862 585.5,170.5 Z"/></g>
<g><path style="opacity:1" fill="#fefffe" d="M 74.5,207.5 C 77.2919,207.452 79.1253,208.785 80,211.5C 81.7363,229.102 82.7363,246.769 83,264.5C 86.1789,280.986 87.1789,297.653 86,314.5C 82.5074,315.954 79.1741,315.621 76,313.5C 75.3296,300.232 74.1629,287.065 72.5,274C 73.1414,271.422 73.4748,268.755 73.5,266C 71.6443,247.19 70.4777,228.357 70,209.5C 71.6225,208.901 73.1225,208.234 74.5,207.5 Z"/></g>
<g><path style="opacity:1" fill="#fefffe" d="M 973.5,243.5 C 986.238,244.735 994.738,251.402 999,263.5C 1003,279.628 998.837,293.128 986.5,304C 983.124,305.07 979.79,306.236 976.5,307.5C 972.028,307.268 970.028,304.934 970.5,300.5C 972.1,284.513 972.433,268.513 971.5,252.5C 971.604,249.231 972.27,246.231 973.5,243.5 Z"/></g>
<g><path style="opacity:1" fill="#fefffe" d="M 476.5,275.5 C 487.916,275.521 498.583,278.354 508.5,284C 516.814,292.405 517.647,301.572 511,311.5C 503.293,319.702 494.127,325.702 483.5,329.5C 482.466,347.977 491.299,357.977 510,359.5C 523.95,358.851 534.284,352.517 541,340.5C 547.965,333.198 553.132,334.365 556.5,344C 552.072,358.096 543.072,368.096 529.5,374C 513.892,378.362 498.892,377.028 484.5,370C 481.838,366.505 478.838,363.338 475.5,360.5C 471.398,363.855 467.398,367.355 463.5,371C 445.893,380.006 428.559,379.34 411.5,369C 403.099,363.272 396.932,355.772 393,346.5C 392.33,338.839 395.83,335.673 403.5,337C 407.577,342.209 411.91,347.209 416.5,352C 435.062,364.587 451.229,362.087 465,344.5C 467.438,339.517 469.272,334.35 470.5,329C 459.629,324.979 450.129,318.812 442,310.5C 432.731,297.346 435.231,287.18 449.5,280C 458.471,277.468 467.471,275.968 476.5,275.5 Z"/></g>
<g><path style="opacity:1" fill="#fefffe" d="M 794.5,323.5 C 796.129,324.625 797.629,325.959 799,327.5C 801.196,332.551 803.362,337.551 805.5,342.5C 801,350.171 797.167,358.171 794,366.5C 781.035,386.112 763.369,398.779 741,404.5C 740.251,403.365 740.417,402.365 741.5,401.5C 748.846,393.484 755.846,385.151 762.5,376.5C 766.684,373.833 771.017,371.333 775.5,369C 782.295,365.257 787.128,359.757 790,352.5C 790.667,350.833 790.667,349.167 790,347.5C 787.337,342.335 783.837,337.835 779.5,334C 784.888,331.121 789.888,327.621 794.5,323.5 Z"/></g>
<g><path style="opacity:1" fill="#fefffe" d="M 959.5,346.5 C 963.754,347.585 966.587,350.252 968,354.5C 968.848,358.85 969.681,363.184 970.5,367.5C 967.77,382.061 959.437,392.227 945.5,398C 941.167,398.667 936.833,398.667 932.5,398C 930.91,396.954 929.41,395.787 928,394.5C 927.333,393.833 927.333,393.167 928,392.5C 941.246,378.994 951.746,363.661 959.5,346.5 Z"/></g>
<g><path style="opacity:1" fill="#fefffe" d="M 92.5,402.5 C 93.7942,403.29 94.9609,404.29 96,405.5C 96.1554,417.899 96.9888,430.233 98.5,442.5C 98.3333,445.167 98.1667,447.833 98,450.5C 95.0337,453.265 92.367,452.932 90,449.5C 87.8869,435.566 87.2203,421.566 88,407.5C 89.6336,405.938 91.1336,404.271 92.5,402.5 Z"/></g>
<g><path style="opacity:1" fill="#fefffe" d="M 362.5,512.5 C 438.406,513.491 514.239,513.824 590,513.5C 590.808,515.423 591.308,517.423 591.5,519.5C 590.445,609.824 590.445,700.157 591.5,790.5C 591.714,794.86 589.714,797.193 585.5,797.5C 510.816,796.902 436.15,796.569 361.5,796.5C 361.76,702.236 362.093,607.569 362.5,512.5 Z"/></g>
<g><path style="opacity:1" fill="#fefffe" d="M 753.5,524.5 C 756.171,526.007 756.671,528.007 755,530.5C 740.758,548.653 726.758,566.987 713,585.5C 709.826,589.683 705.826,592.683 701,594.5C 700.727,592.899 700.227,591.399 699.5,590C 700.007,572.23 697.674,554.73 692.5,537.5C 694.316,535.559 696.316,534.892 698.5,535.5C 717.623,533.366 735.957,529.7 753.5,524.5 Z"/></g>
<g><path style="opacity:1" fill="#000000" d="M 378.5,525.5 C 388.318,526.196 391.151,530.862 387,539.5C 382.333,542.167 377.667,542.167 373,539.5C 370.676,533.153 372.51,528.487 378.5,525.5 Z"/></g>
<g><path style="opacity:1" fill="#000000" d="M 473.5,525.5 C 481.594,525.097 485.428,528.764 485,536.5C 484.215,538.286 483.049,539.786 481.5,541C 470.919,544.033 466.753,540.199 469,529.5C 470.397,527.93 471.897,526.596 473.5,525.5 Z"/></g>
<g><path style="opacity:1" fill="#000000" d="M 570.5,525.5 C 578.318,525.343 581.818,529.01 581,536.5C 578.103,541.155 573.937,542.655 568.5,541C 562.847,535.083 563.514,529.916 570.5,525.5 Z"/></g>
<g><path style="opacity:1" fill="#000000" d="M 374.5,607.5 C 378.182,607.335 381.848,607.501 385.5,608C 389.499,610.808 390.332,614.308 388,618.5C 384.095,622.512 379.595,623.345 374.5,621C 372.833,619.177 371.833,617.01 371.5,614.5C 372.251,612.004 373.251,609.67 374.5,607.5 Z"/></g>
<g><path style="opacity:1" fill="#000000" d="M 568.5,607.5 C 579.726,605.543 583.393,609.71 579.5,620C 572.312,624.271 567.312,622.605 564.5,615C 564.43,611.634 565.763,609.134 568.5,607.5 Z"/></g>
<g><path style="opacity:1" fill="#000000" d="M 377.5,689.5 C 387.384,689.498 390.55,693.831 387,702.5C 382.321,706.328 377.654,706.328 373,702.5C 370.548,696.747 372.048,692.414 377.5,689.5 Z"/></g>
<g><path style="opacity:1" fill="#000000" d="M 570.5,689.5 C 582.156,690.116 584.49,694.95 577.5,704C 569.044,707.1 564.878,704.267 565,695.5C 566.021,692.65 567.854,690.65 570.5,689.5 Z"/></g>
<g><path style="opacity:1" fill="#000000" d="M 475.5,775.5 C 482.852,775.724 486.019,779.391 485,786.5C 484.167,788.667 482.667,790.167 480.5,791C 469.574,792.753 466.074,788.587 470,778.5C 471.719,777.131 473.552,776.131 475.5,775.5 Z"/></g>
<g><path style="opacity:1" fill="#000000" d="M 375.5,776.5 C 385.26,774.101 389.427,777.768 388,787.5C 383.243,792.241 378.243,792.574 373,788.5C 371.636,784.166 372.469,780.166 375.5,776.5 Z"/></g>
<g><path style="opacity:1" fill="#000000" d="M 568.5,776.5 C 579.709,774.527 583.376,778.694 579.5,789C 575.243,792.046 570.91,792.213 566.5,789.5C 563.776,784.763 564.443,780.43 568.5,776.5 Z"/></g>
</svg>
